<svg width="256" height="256" viewBox="0 0 256 256" fill="none" xmlns="http://www.w3.org/2000/svg">
  <defs>
    <!-- Solana gradients -->
    <linearGradient id="sol1" x1="360.9" y1="351.5" x2="141.2" y2="-69.3" gradientTransform="matrix(1 0 0 -1 0 314)" gradientUnits="userSpaceOnUse">
      <stop offset="0" stop-color="#00FFA3"/>
      <stop offset="1" stop-color="#DC1FFF"/>
    </linearGradient>
    <linearGradient id="sol2" x1="264.8" y1="401.6" x2="45.16" y2="-19.15" gradientTransform="matrix(1 0 0 -1 0 314)" gradientUnits="userSpaceOnUse">
      <stop offset="0" stop-color="#00FFA3"/>
      <stop offset="1" stop-color="#DC1FFF"/>
    </linearGradient>
    <linearGradient id="sol3" x1="312.55" y1="376.69" x2="92.88" y2="-44.06" gradientTransform="matrix(1 0 0 -1 0 314)" gradientUnits="userSpaceOnUse">
      <stop offset="0" stop-color="#00FFA3"/>
      <stop offset="1" stop-color="#DC1FFF"/>
    </linearGradient>
  </defs>

  <!-- Black circular background -->
  <circle cx="128" cy="128" r="128" fill="black"/>

  <!-- Solana logo group, perfectly centered -->
  <g transform="translate(128,128) scale(0.35) translate(-198.85,-156)"> 
    <!-- Explanation: 
         1. Translate the group to the center of the 256x256 circle (128,128)
         2. Scale down to fit within circle
         3. Translate negative half of original glyph bounding box (approx center) -->
    <!-- Top bar -->
    <path fill="url(#sol2)" d="M64.6,3.8C67.1,1.4,70.4,0,73.8,0h317.4c5.8,0,8.7,7,4.6,11.1l-62.7,62.7
      c-2.4,2.4-5.7,3.8-9.2,3.8H6.5c-5.8,0-8.7-7-4.6-11.1L64.6,3.8z"/>
    <!-- Middle bar -->
    <path fill="url(#sol3)" d="M333.1,120.1c-2.4-2.4-5.7-3.8-9.2-3.8H6.5c-5.8,0-8.7,7-4.6,11.1l62.7,62.7
      c2.4,2.4,5.7,3.8,9.2,3.8h317.4c5.8,0,8.7-7,4.6-11.1L333.1,120.1z"/>
    <!-- Bottom bar -->
    <path fill="url(#sol1)" d="M64.6,237.9c2.4-2.4,5.7-3.8,9.2-3.8h317.4c5.8,0,8.7,7,4.6,11.1l-62.7,62.7
      c-2.4,2.4-5.7,3.8-9.2,3.8H6.5c-5.8,0-8.7-7-4.6-11.1L64.6,237.9z"/>
  </g>
</svg>
